HIERARCHY
ROOT Hips
{
	OFFSET 0.00000 0.00000 0.00000
	CHANNELS 6 Xposition Yposition Zposition Zrotation Yrotation Xrotation 
	JOINT LHipJoint
	{
		OFFSET 0 0 0
		CHANNELS 3 Zrotation Yrotation Xrotation
		JOINT LeftUpLeg
		{
			OFFSET 1.41261 -1.82971 0.84908
			CHANNELS 3 Zrotation Yrotation Xrotation
			JOINT LeftLeg
			{
				OFFSET 2.52554 -6.93888 0.00000
				CHANNELS 3 Zrotation Yrotation Xrotation
				JOINT LeftFoot
				{
					OFFSET 2.56654 -7.05152 0.00000
					CHANNELS 3 Zrotation Yrotation Xrotation
					JOINT LeftToeBase
					{
						OFFSET 0.21698 -0.59616 1.85369
						CHANNELS 3 Zrotation Yrotation Xrotation
						End Site
						{
							OFFSET 0.00000 -0.00000 0.97832
						}
					}
				}
			}
		}
	}
	JOINT RHipJoint
	{
		OFFSET 0 0 0
		CHANNELS 3 Zrotation Yrotation Xrotation
		JOINT RightUpLeg
		{
			OFFSET -1.12808 -1.82971 0.84907
			CHANNELS 3 Zrotation Yrotation Xrotation
			JOINT RightLeg
			{
				OFFSET -2.53425 -6.96280 0.00000
				CHANNELS 3 Zrotation Yrotation Xrotation
				JOINT RightFoot
				{
					OFFSET -2.58413 -7.09983 0.00000
					CHANNELS 3 Zrotation Yrotation Xrotation
					JOINT RightToeBase
					{
						OFFSET -0.26437 -0.72636 1.92241
						CHANNELS 3 Zrotation Yrotation Xrotation
						End Site
						{
							OFFSET -0.00000 -0.00000 1.02667
						}
					}
				}
			}
		}
	}
	JOINT LowerBack
	{
		OFFSET 0 0 0
		CHANNELS 3 Zrotation Yrotation Xrotation
		JOINT Spine
		{
			OFFSET -0.02096 2.02288 -0.14752
			CHANNELS 3 Zrotation Yrotation Xrotation
			JOINT Spine1
			{
				OFFSET 0.03477 2.03136 -0.02358
				CHANNELS 3 Zrotation Yrotation Xrotation
				JOINT Neck
				{
					OFFSET 0 0 0
					CHANNELS 3 Zrotation Yrotation Xrotation
					JOINT Neck1
					{
						OFFSET 0.00174 1.74359 0.19336
						CHANNELS 3 Zrotation Yrotation Xrotation
						JOINT Head
						{
							OFFSET -0.03054 1.76140 -0.17751
							CHANNELS 3 Zrotation Yrotation Xrotation
							End Site
							{
								OFFSET -0.00863 1.77239 -0.08120
							}
						}
					}
				}
				JOINT LeftShoulder
				{
					OFFSET 0 0 0
					CHANNELS 3 Zrotation Yrotation Xrotation
					JOINT LeftArm
					{
						OFFSET 3.68685 1.32687 -0.67367
						CHANNELS 3 Zrotation Yrotation Xrotation
						JOINT LeftForeArm
						{
							OFFSET 4.76468 -0.00000 -0.00000
							CHANNELS 3 Zrotation Yrotation Xrotation
							JOINT LeftHand
							{
								OFFSET 3.52712 -0.00000 -0.00000
								CHANNELS 3 Zrotation Yrotation Xrotation
								JOINT LeftFingerBase
								{
									OFFSET 0 0 0
									CHANNELS 3 Zrotation Yrotation Xrotation
									JOINT LeftHandIndex1
									{
										OFFSET 0.85956 -0.00000 -0.00000
										CHANNELS 3 Zrotation Yrotation Xrotation
										End Site
										{
											OFFSET 0.69300 -0.00000 -0.00000
										}
									}
								}
								JOINT LThumb
								{
									OFFSET 0 0 0
									CHANNELS 3 Zrotation Yrotation Xrotation
									End Site
									{
										OFFSET 0.70358 -0.00000 0.70358
									}
								}
							}
						}
					}
				}
				JOINT RightShoulder
				{
					OFFSET 0 0 0
					CHANNELS 3 Zrotation Yrotation Xrotation
					JOINT RightArm
					{
						OFFSET -3.31304 1.28268 -0.97357
						CHANNELS 3 Zrotation Yrotation Xrotation
						JOINT RightForeArm
						{
							OFFSET -4.90577 -0.00000 -0.00000
							CHANNELS 3 Zrotation Yrotation Xrotation
							JOINT RightHand
							{
								OFFSET -3.42692 -0.00000 0.00000
								CHANNELS 3 Zrotation Yrotation Xrotation
								JOINT RightFingerBase
								{
									OFFSET 0 0 0
									CHANNELS 3 Zrotation Yrotation Xrotation
									JOINT RightHandIndex1
									{
										OFFSET -0.74096 -0.00000 -0.00000
										CHANNELS 3 Zrotation Yrotation Xrotation
										End Site
										{
											OFFSET -0.59738 -0.00000 -0.00000
										}
									}
								}
								JOINT RThumb
								{
									OFFSET 0 0 0
									CHANNELS 3 Zrotation Yrotation Xrotation
									End Site
									{
										OFFSET -0.60650 -0.00000 0.60650
									}
								}
							}
						}
					}
				}
			}
		}
	}
}
MOTION
Frames: 14
Frame Time: .0083333
-1.9977 17.1316 -29.5459 -8.5425 -5.3266 8.9970 0.0000 0.0000 0.0000 1.2013 -6.1309 -27.8268 12.9465 18.7628 68.9592 0.5765 -5.0768 -13.5169 2.8691 -10.4801 -30.5458 0.0000 0.0000 0.0000 25.5434 -7.0980 -3.6256 -2.1423 -9.1564 26.2858 -3.5149 7.8532 -34.0957 -0.0454 1.3755 -3.7827 4.7872 2.0273 15.4273 3.8348 3.7143 2.2641 0.6116 1.7359 -6.1880 -0.0805 1.2615 -11.8513 -2.1594 2.0750 14.1729 -0.4911 0.8239 6.2775 -0.0000 -0.0000 0.0000 -92.8914 9.9315 1.5345 21.9276 -32.8952 -6.5465 -0.0000 -0.0000 0.0149 13.5468 -13.2610 -3.1635 -7.1250 0.0000 -0.0000 -9.4901 16.4722 6.5004 -0.0000 -0.0000 0.0000 87.4892 5.3942 15.0046 -14.8324 23.9121 -3.1577 0.0000 0.0000 5.7612 -11.5694 -38.6866 7.2919 7.1250 -0.0000 -0.0000 31.3892 -66.6986 -17.1109
-2.0180 17.0967 -29.3924 -9.2434 -6.4533 9.6199 0.0000 0.0000 0.0000 1.2905 -6.3738 -31.0089 13.9775 19.1072 72.1358 0.6224 -8.1387 -14.3225 3.0220 -10.7305 -31.3764 0.0000 0.0000 0.0000 26.1420 -6.7591 -3.4006 -2.1031 -9.0775 26.0381 -3.5475 8.1095 -34.2401 -0.0544 1.5055 -4.1408 5.4004 2.4480 15.8699 3.9490 4.3923 2.4757 0.2405 2.0525 -6.1536 -0.0553 1.2236 -12.1817 -2.3444 2.0419 13.7889 -0.5556 0.7960 6.2144 -0.0000 -0.0000 0.0000 -93.0701 9.8802 1.0207 21.7930 -32.7423 -6.4735 -0.0000 0.0000 -0.1061 12.7002 -13.6178 -3.0373 -7.1250 0.0000 -0.0000 -10.0651 16.1721 6.9731 -0.0000 -0.0000 0.0000 87.3393 7.2575 17.2951 -14.7094 23.7397 -3.1080 0.0000 0.0000 6.0889 -12.5934 -38.9242 7.9901 7.1250 -0.0000 -0.0000 30.6201 -67.1993 -17.0022
-2.0350 17.0648 -29.2251 -9.5484 -7.3523 10.2794 0.0000 0.0000 0.0000 0.7602 -6.8351 -34.1949 14.7308 19.3209 74.4244 0.5998 -11.7071 -15.0014 3.2516 -11.0915 -32.5892 0.0000 0.0000 0.0000 26.2605 -6.6195 -3.0783 -2.0097 -8.8862 25.4400 -3.5847 8.2043 -34.4214 -0.0727 1.7397 -4.7868 5.6517 2.8168 16.2437 3.9362 4.9337 2.6320 -0.0368 2.3087 -6.1516 -0.0179 1.2094 -12.1636 -2.4976 2.0202 13.0404 -0.6131 0.7838 5.9760 -0.0000 0.0000 0.0000 -93.3263 9.8894 0.4246 21.5922 -32.5131 -6.3653 -0.0000 -0.0000 0.1843 12.1723 -14.0651 -3.0007 -7.1250 0.0000 -0.0000 -10.4180 15.7602 7.3203 -0.0000 0.0000 0.0000 87.3529 9.1800 19.2281 -14.5955 23.5796 -3.0623 0.0000 0.0000 6.8455 -12.7590 -38.9439 8.1007 7.1250 -0.0000 -0.0000 30.4681 -67.2654 -16.9564
-2.0526 17.0325 -29.0444 -9.7431 -7.9917 11.0708 0.0000 0.0000 0.0000 0.0218 -7.4213 -37.4417 15.1904 19.4361 75.8094 0.4559 -15.5147 -15.2558 3.3807 -11.2871 -33.2545 0.0000 0.0000 0.0000 26.2890 -6.5258 -2.7556 -1.8859 -8.6242 24.6267 -3.6312 8.0200 -34.6722 -0.1296 2.3206 -6.3925 5.7317 3.1180 16.4918 3.9165 5.3586 2.6438 -0.2025 2.5084 -6.2498 -0.0141 1.1830 -11.9231 -2.5498 1.9719 12.3615 -0.6361 0.7662 5.7211 -0.0000 -0.0000 0.0000 -93.6749 10.2033 -0.0364 21.5143 -32.4237 -6.3234 -0.0000 -0.0000 0.5555 11.8914 -14.2994 -2.9773 -7.1250 0.0000 -0.0000 -10.6048 15.5452 7.5063 -0.0000 -0.0000 0.0000 87.5224 10.8611 20.8627 -14.7427 23.7865 -3.1214 0.0000 0.0000 7.7733 -12.1422 -38.7838 7.6754 7.1250 -0.0000 -0.0000 30.9090 -66.9485 -17.0014
-2.0737 17.0046 -28.8483 -10.1332 -8.4492 11.9488 0.0000 0.0000 0.0000 -0.6131 -7.8522 -40.5864 15.3411 19.4715 76.2621 0.1950 -19.1293 -15.0910 3.4118 -11.3335 -33.4132 0.0000 0.0000 0.0000 26.5431 -6.5456 -2.3800 -1.7422 -8.3070 23.6505 -3.6634 7.8782 -34.8473 -0.2162 2.9931 -8.2594 5.9029 3.3942 16.6621 3.9340 5.7666 2.6156 -0.3739 2.6976 -6.3426 -0.0234 1.1436 -11.8806 -2.4374 1.8936 11.9713 -0.6064 0.7407 5.5890 0.0000 0.0000 0.0000 -93.9012 10.5949 -0.2055 21.5284 -32.4399 -6.3310 -0.0000 -0.0000 0.4110 11.5072 -14.4527 -2.9087 -7.1250 0.0000 -0.0000 -10.8624 15.4191 7.7255 0.0000 0.0000 0.0000 87.8463 12.1578 22.5069 -15.4353 24.7490 -3.4061 0.0000 0.0000 8.4671 -11.3131 -39.0577 7.1846 7.1250 -0.0000 -0.0000 32.1946 -66.9265 -17.7524
-2.0974 16.9859 -28.6290 -10.6357 -8.7631 12.9018 0.0000 0.0000 0.0000 -1.3008 -8.1145 -43.5317 15.2236 19.4440 75.9092 -0.1369 -21.9839 -14.4390 3.5490 -11.5348 -34.1053 0.0000 0.0000 0.0000 26.8629 -6.8099 -1.9363 -1.5688 -7.9034 22.4210 -3.6356 8.0906 -34.6883 -0.2920 3.4746 -9.6031 6.0966 3.6922 16.7435 3.9481 6.2051 2.5318 -0.5644 2.9003 -6.4402 0.1029 1.1005 -11.9544 -2.3455 1.7957 11.7665 -0.6060 0.7071 5.5360 0.0000 0.0000 0.0000 -93.9685 11.0265 -0.0152 21.6056 -32.5284 -6.3725 -0.0000 0.0000 -0.2309 11.2508 -14.5235 -2.8559 -7.1250 0.0000 -0.0000 -11.0345 15.3663 7.8653 0.0000 0.0000 0.0000 88.1146 13.3993 24.4509 -15.9912 25.5088 -3.6422 0.0000 0.0000 8.5003 -10.8722 -39.0988 6.9065 7.1250 -0.0000 -0.0000 32.7249 -66.8287 -17.9991
-2.1237 16.9804 -28.3856 -11.0657 -8.7841 13.8883 0.0000 0.0000 0.0000 -2.2391 -8.4300 -46.1766 14.8616 19.3548 74.8194 -0.4126 -23.9118 -13.8664 3.6868 -11.7315 -34.7887 0.0000 0.0000 0.0000 27.0991 -7.4950 -1.5358 -1.3861 -7.4492 21.0532 -3.5235 8.5380 -34.0842 -0.3399 3.7462 -10.3638 6.2010 3.9611 16.8227 3.9511 6.6000 2.3361 -0.7140 3.0780 -6.6656 0.3117 0.9866 -12.0322 -2.3535 1.6050 11.7111 -0.6580 0.6232 5.5307 0.0000 -0.0000 0.0000 -93.9663 11.5823 0.4767 21.7982 -32.7482 -6.4763 -0.0000 0.0000 -1.0820 11.1778 -14.4836 -2.8293 -7.1250 0.0000 -0.0000 -11.0845 15.4111 7.8915 0.0000 -0.0000 0.0000 88.0384 15.0199 27.0683 -15.7543 25.1864 -3.5408 0.0000 0.0000 7.2658 -11.1285 -38.5076 6.9825 7.1250 -0.0000 -0.0000 31.6111 -66.4218 -17.0449
-2.1512 16.9891 -28.1255 -11.4712 -8.6031 14.8039 0.0000 0.0000 0.0000 -3.4270 -8.6859 -48.3604 14.2822 19.1974 73.0646 -0.5852 -25.2864 -13.7771 3.4895 -11.4483 -33.8070 0.0000 0.0000 0.0000 27.2864 -8.6186 -1.2464 -1.2306 -7.0353 19.8201 -3.3274 9.1039 -33.0367 -0.3721 3.9180 -10.8462 6.2410 4.2042 17.1087 3.9486 6.9734 2.0859 -0.8509 3.2379 -7.0706 0.3894 0.8288 -12.2871 -2.1471 1.3509 11.7602 -0.6260 0.5161 5.5842 0.0000 0.0000 0.0000 -93.9284 12.2258 1.1496 22.1600 -33.1574 -6.6732 -0.0000 0.0000 -1.7025 10.9685 -14.4190 -2.7630 -7.1250 0.0000 -0.0000 -11.2273 15.4899 7.9778 0.0000 0.0000 0.0000 88.1343 15.1842 28.7842 -17.0085 26.8690 -4.0912 0.0000 0.0000 6.2069 -11.3644 -38.5217 7.1351 7.1250 -0.0000 -0.0000 31.3779 -66.5024 -16.9656
-2.1753 17.0072 -27.8453 -12.0078 -8.4197 15.8319 0.0000 0.0000 0.0000 -4.6993 -8.6984 -50.2616 13.5342 18.9666 70.7768 -0.7493 -26.2762 -13.4836 3.4694 -11.4187 -33.7052 0.0000 0.0000 0.0000 27.5077 -9.8341 -1.2413 -1.1279 -6.7457 18.9640 -3.0674 9.8016 -31.6326 -0.4940 4.5065 -12.5063 6.2801 4.4725 17.2923 3.9597 7.3747 1.8167 -0.9746 3.4118 -7.4413 0.4950 0.6989 -12.6000 -1.8292 1.1108 11.7123 -0.5626 0.4262 5.6169 -0.0000 0.0000 0.0000 -93.9216 12.9041 1.8287 22.7282 -33.7903 -6.9866 -0.0000 0.0000 -1.9270 10.6161 -14.4456 -2.6771 -7.1250 0.0000 -0.0000 -11.4647 15.4870 8.1543 -0.0000 0.0000 0.0000 88.0861 15.1724 30.3329 -18.3870 28.6499 -4.7333 0.0000 0.0000 4.8072 -12.0110 -38.0937 7.4779 7.1250 -0.0000 -0.0000 30.0947 -66.3363 -16.1039
-2.1977 17.0336 -27.5372 -12.7006 -8.0328 16.8875 0.0000 0.0000 0.0000 -5.9882 -8.6569 -51.6498 12.6193 18.6404 67.9388 -0.8933 -26.8591 -12.9894 3.5615 -11.5528 -34.1677 0.0000 0.0000 0.0000 27.7652 -11.3608 -1.5518 -1.0962 -6.6533 18.6922 -2.7749 10.3263 -30.0238 -1.1137 6.7045 -18.8429 6.4196 4.6691 17.2338 4.0332 7.6809 1.5991 -1.0441 3.5461 -7.6237 0.7187 0.5729 -12.7269 -1.5808 0.8591 11.3720 -0.5417 0.3331 5.5278 -0.0000 -0.0000 0.0000 -93.9936 13.4681 2.2651 23.3751 -34.4964 -7.3496 -0.0000 0.0000 -2.0908 10.3479 -14.6127 -2.6375 -7.1250 0.0000 -0.0000 -11.6416 15.3390 8.3235 -0.0000 -0.0000 0.0000 87.9136 15.0917 31.3408 -19.3948 29.9063 -5.2262 0.0000 0.0000 4.3026 -12.4706 -36.3240 7.4634 7.1250 -0.0000 -0.0000 27.3581 -64.9618 -13.6808
-2.2167 17.0682 -27.2025 -13.5245 -7.3271 17.6921 0.0000 0.0000 0.0000 -7.3443 -8.5642 -52.1844 11.6006 18.2167 64.7170 -1.0475 -26.9942 -11.9614 3.1708 -10.9666 -32.1673 0.0000 0.0000 0.0000 27.9367 -12.6291 -1.6479 -1.0839 -6.6170 18.5857 -2.1801 12.9677 -26.7346 -1.2950 7.2102 -20.3396 6.7430 4.7025 17.1446 4.1918 7.7973 1.5324 -1.0710 3.5933 -7.6225 0.9554 0.4512 -12.7191 -1.3036 0.6070 10.8040 -0.5138 0.2422 5.3451 -0.0000 -0.0000 0.0000 -94.1402 13.8522 2.4369 23.9744 -35.1372 -7.6918 -0.0000 0.0000 -2.6891 10.4966 -14.9673 -2.7396 -7.1250 0.0000 -0.0000 -11.5335 14.9768 8.3344 -0.0000 -0.0000 0.0000 87.6288 15.0121 32.0839 -20.2487 30.9408 -5.6586 0.0000 0.0000 3.7909 -12.3460 -34.5685 7.0793 7.1250 -0.0000 -0.0000 25.5412 -63.3929 -11.7844
-2.2250 17.1058 -26.8455 -14.2775 -6.5156 18.2088 0.0000 0.0000 0.0000 -9.0559 -8.2080 -51.9028 10.5297 17.6972 61.2447 -0.9991 -25.5122 -10.7228 3.1122 -10.8745 -31.8578 0.0000 0.0000 0.0000 27.6839 -14.0114 -1.9281 -1.1803 -6.8952 19.4053 -1.5034 16.0698 -23.1354 -1.9215 8.7007 -24.8633 7.0136 4.5988 17.0879 4.4021 7.7167 1.6076 -0.9684 3.5547 -7.5095 1.0996 0.3857 -12.6863 -0.8648 0.4312 10.2779 -0.4139 0.1938 5.1725 -0.0000 0.0000 0.0000 -94.4220 14.1050 2.4542 24.4484 -35.6349 -7.9663 -0.0000 0.0000 -3.7461 11.4150 -15.3464 -3.0587 -7.1250 0.0000 -0.0000 -10.9109 14.5337 7.9721 -0.0000 0.0000 0.0000 87.3199 14.9248 32.2562 -20.6992 31.4756 -5.8921 0.0000 0.0000 4.0561 -13.3643 -34.3686 7.6386 7.1250 -0.0000 -0.0000 24.2362 -63.4834 -11.1962
-2.2204 17.1381 -26.4663 -14.9052 -5.8788 18.4648 0.0000 0.0000 0.0000 -11.1218 -7.4311 -50.7381 9.6302 17.1966 58.2449 -0.4823 -21.8249 -11.4188 2.9175 -10.5604 -30.8111 0.0000 0.0000 0.0000 26.8887 -15.0279 -2.1385 -1.3743 -7.4187 20.9620 -0.7886 18.3406 -19.1420 -3.3471 11.2368 -33.0827 7.0837 4.4353 17.1265 4.6468 7.5236 1.7686 -0.7018 3.4700 -7.3922 1.1669 0.4042 -12.6107 -0.3927 0.3837 9.8891 -0.2812 0.2055 5.0376 -0.0000 -0.0000 0.0000 -94.8456 14.1258 2.1807 24.6179 -35.8109 -8.0653 -0.0000 0.0000 -4.6702 12.4532 -15.8943 -3.4610 -7.1250 0.0000 -0.0000 -10.2119 13.9048 7.5824 -0.0000 -0.0000 0.0000 86.9474 14.8427 31.5679 -20.6364 31.4015 -5.8593 0.0000 0.0000 4.9971 -13.5652 -32.3466 7.3559 7.1250 -0.0000 -0.0000 22.0985 -61.7047 -9.2313
-2.1996 17.1542 -26.0650 -15.6256 -5.5631 18.4049 0.0000 0.0000 0.0000 -13.1839 -6.1226 -48.6029 8.6861 16.6014 54.9981 -0.0359 -17.1231 -11.6837 2.8768 -10.4929 -30.5882 0.0000 0.0000 0.0000 25.3316 -15.4685 -3.3530 -1.9132 -8.6829 24.8083 0.4789 22.0154 -11.6264 -3.6297 11.6506 -34.5070 7.2484 4.2809 17.4260 4.9049 7.3803 1.9935 -0.5019 3.4027 -7.3349 1.3657 0.5150 -12.5274 -0.1448 0.4676 9.6371 -0.2297 0.2703 4.9462 -0.0000 -0.0000 0.0000 -95.2190 13.8754 1.8308 24.5207 -35.7101 -8.0085 -0.0000 0.0000 -4.5817 13.1167 -16.4961 -3.7854 -7.1250 0.0000 -0.0000 -9.7705 13.2445 7.3826 -0.0000 -0.0000 0.0000 86.4188 13.7355 30.1567 -21.5147 32.4242 -6.3236 0.0000 0.0000 6.1358 -12.6531 -35.2541 7.3834 7.1250 -0.0000 -0.0000 25.9427 -64.0790 -12.3972
